# xmcd
#
# Track frame offsets:
#	150
#	11415
#	25202
#	36967
#	46950
#	63267
#	73545
#	87350
#	99667
#	113930
#	128832
#	143995
#	156015
#	169927
#	182295
#	197252
#	208645
#	220040
#	232375
#	244550
#	260995
#	274045
#	287090
#	305812
#	318337
#
# Disc length: 4396 seconds
#
# Revision: 1
# Processed by: cddbd v1.5.1PL0 Copyright (c) Steve Scherf et al.
# Submitted via: EasyCDDAExtractor 5.1.0
#
DISCID=6d112a19
DTITLE=Various Artist - Anthologie de la chanson Française enregistrée - Les 
DTITLE=chansons à voix
DYEAR=1900
DGENRE=Chanson
TTITLE0=Note - Le credo du paysan - 1897
TTITLE1=Melgati - La chanson des blés d'or - 1882
TTITLE2=Note - La voix des chenes - 1898
TTITLE3=Paul Aumonier - Le cor - 1882
TTITLE4=Paul Payan - Les sapins - 1882
TTITLE5=Note - La chansons des peupliers - 1883
TTITLE6=Melgati - Ma Normandie - 1880
TTITLE7=Paul Payan - Les boeufs - 1846
TTITLE8=Berard - L'océan - 1911
TTITLE9=Les Enard's - L'angélus de la mer - 1894
TTITLE10=Couchoud - Le chapelet de saint Malo - 1913
TTITLE11=Mercadier - Je suis le passeur du printmps - 
TTITLE12=Berard - Le moulin de maitre Jean - 1912
TTITLE13=Georges eval - Chante populo - 1906
TTITLE14=Berard - Gaby - 1908
TTITLE15=Georges Eval - Chemineau chemine - 1909
TTITLE16=Berard - La carmélite - 1908
TTITLE17=Note - Le noël de gueux - 1888
TTITLE18=Berard - Le clown - 1907
TTITLE19=Furens - Maitre Pierre - 1909
TTITLE20=Berard - Chand d'ballons -  1902
TTITLE21=Berard - J'ai perdu la boule - 1899
TTITLE22=Henriette Leblond - En quatre vingt treize - 1910
TTITLE23=Berard - La folie des grandeurs - 1907
TTITLE24=Perval - Au claire de la lune (chanson pacifiste) - 1898
EXTD=
EXTT0=
EXTT1=
EXTT2=
EXTT3=
EXTT4=
EXTT5=
EXTT6=
EXTT7=
EXTT8=
EXTT9=
EXTT10=
EXTT11=
EXTT12=
EXTT13=
EXTT14=
EXTT15=
EXTT16=
EXTT17=
EXTT18=
EXTT19=
EXTT20=
EXTT21=
EXTT22=
EXTT23=
EXTT24=
PLAYORDER=
